{"title":"Transformers 3 Dark Of The Moon 2011 CAM XVid","uid":6504999,"size":839980963,"categoryP":"video","categoryS":"movies","magnet":"?xt=urn:btih:7ebdedfa0c06509b9bd3df5a7e56f426808987fd&amp;dn=Transformers+3+Dark+Of+The+Moon+2011+CAM+XVid&amp;tr=udp%3A%2F%2Ftracker.openbittorrent.com%3A80&amp;tr=udp%3A%2F%2Fopen.demonii.com%3A1337&amp;tr=udp%3A%2F%2Ftracker.coppersurfer.tk%3A6969&amp;tr=udp%3A%2F%2Fexodus.desync.com%3A6969","seeders":0,"leechers":0,"uploader":"mitrapt","files":3,"time":1309396271,"description":"Transformers 3  Dark Of The Moon In Hindi\n\nFormat                           : MPEG-PS\nFile size                        : 801 MiB\nDuration                         : 2h 23mn\nOverall bit rate                 : 780 Kbps\n\nVideo\nID                               : 224 (0xE0)\nFormat                           : MPEG Video\nFormat version                   : Version 2\nFormat settings, BVOP            : Yes\nFormat settings, Matrix          : Default\nDuration                         : 2h 23mn\nBit rate mode                    : Constant\nBit rate                         : 700 Kbps\nNominal bit rate                 : 1 150 Kbps\nWidth                            : 352 pixels\nHeight                           : 288 pixels\nDisplay aspect ratio             : 1.222\nFrame rate                       : 25.000 fps\nStandard                         : PAL\nColor space                      : YUV\nBit depth                        : 8 bits\nScan type                        : Progressive\nCompression mode                 : Lossy\nBits/(Pixel*Frame)               : 0.276\nStream size                      : 719 MiB (90%)\n\nAudio\nID                               : 192 (0xC0)\nFormat                           : MPEG Audio\nFormat version                   : Version 1\nFormat profile                   : Layer 2\nDuration                         : 2h 23mn\nBit rate mode                    : Constant\nBit rate                         : 64.0 Kbps\nChannel(s)                       : 2 channels\nSampling rate                    : 48.0 KHz\nCompression mode                 : Lossy\nStream size                      : 65.7 MiB (8%)\n\n","torrent":{"xt":"urn:btih:7ebdedfa0c06509b9bd3df5a7e56f426808987fd","amp;dn":"Transformers+3+Dark+Of+The+Moon+2011+CAM+XVid","amp;tr":["udp%3A%2F%2Ftracker.openbittorrent.com%3A80","udp%3A%2F%2Fopen.demonii.com%3A1337","udp%3A%2F%2Ftracker.coppersurfer.tk%3A6969","udp%3A%2F%2Fexodus.desync.com%3A6969"],"infoHash":"7ebdedfa0c06509b9bd3df5a7e56f426808987fd","infoHashBuffer":{"type":"Buffer","data":[126,189,237,250,12,6,80,155,155,211,223,90,126,86,244,38,128,137,135,253]},"announce":[],"urlList":[]}}